<?xml version="1.0" encoding="UTF-8"?>
<svg id="Layer_1" data-name="Layer 1" xmlns="http://www.w3.org/2000/svg" viewBox="0 0 135.57 53.02">
  <defs>
    <style>
      .cls-1 {
        fill-rule: evenodd;
      }

      .cls-1, .cls-2 {
        fill: #fff;
      }

      .cls-2 {
        stroke: #fff;
        stroke-miterlimit: 10;
        stroke-width: .5px;
      }
    </style>
  </defs>
  <g>
    <path class="cls-1" d="M83.58,10.87c-.12-.04-.19-.08-.31-.08-.15,0-.31.04-.43.12-.12.08-.23.2-.31.39l-3.02,8.67-2.32-5.79c-.08-.16-.19-.28-.31-.39-.12-.08-.31-.12-.46-.12s-.31.04-.43.12c-.12.08-.23.2-.31.35l-2.32,5.83-3.06-8.67c-.04-.16-.15-.32-.31-.39-.12-.08-.27-.12-.43-.12-.12,0-.19.04-.31.08-.27.16-.46.43-.46.75,0,.12,0,.2.04.32l3.75,10.52c.04.08.08.16.12.24.04.04.12.12.19.16,0,0,.04.04.08.04.04.04.08.04.12.04.08.04.15.04.27.04.15,0,.31-.04.43-.16.12-.08.23-.2.27-.35l2.36-5.91,2.36,5.91c.04.16.15.28.27.35s.23.16.39.16h.12c.08,0,.19,0,.27-.04.08-.04.15-.08.19-.12.12-.12.23-.24.27-.39l3.72-10.48c.04-.12.04-.2.04-.32,0-.32-.19-.63-.46-.75ZM66.43,16.86c0-1.22-.46-2.36-1.16-3.15-.74-.83-1.7-1.3-2.79-1.3s-2.05.51-2.79,1.3c-.74.83-1.16,1.93-1.16,3.15s.46,2.33,1.16,3.15c.74.79,1.7,1.3,2.79,1.3s2.05-.47,2.79-1.3c.7-.79,1.16-1.89,1.16-3.15ZM66.4,12.6c1.01,1.1,1.63,2.64,1.63,4.3s-.62,3.19-1.63,4.3c-1.01,1.1-2.4,1.81-3.95,1.81s-2.94-.71-3.91-1.81c-1.01-1.1-1.63-2.64-1.63-4.3s.62-3.19,1.63-4.3c1.01-1.1,2.4-1.81,3.91-1.81,1.59,0,2.98.67,3.95,1.81ZM50.64,10.79c-1.24,0-2.36.51-3.21,1.3v-.47c0-.24-.08-.43-.23-.59-.12-.16-.35-.24-.54-.24-.23,0-.43.08-.58.24-.15.16-.23.35-.23.59v10.76l.04.04s.04.08.04.12c.12.2.27.35.5.43h.19c.12,0,.23-.04.35-.08.08-.04.19-.12.23-.2,0,0,0-.04.04-.04.04-.04.08-.12.12-.16.04-.08.04-.12.04-.16v-6.54c.04-.91.39-1.77.97-2.36.58-.59,1.39-.99,2.24-.99s1.7.39,2.28.99c.58.59.93,1.46.93,2.36v6.34c0,.24.08.43.23.59.15.16.35.24.54.24s.43-.08.54-.24c.15-.16.23-.35.23-.59v-6.34c.04-2.72-2.09-5-4.72-5ZM128.86,15.68c-.46-1.93-2.05-3.27-3.91-3.27s-3.48,1.34-3.95,3.27h7.86ZM130.6,16.47v.08c0,.24-.12.43-.23.59-.15.12-.35.2-.54.2h-8.9c.23,2.29,1.97,3.94,4.03,3.98h.54c.7,0,1.35-.24,1.93-.67.58-.39,1.08-.99,1.47-1.62.08-.12.19-.24.31-.32.12-.08.23-.08.39-.08s.27.04.39.12c.23.16.35.43.35.71,0,.16-.04.28-.12.43-.5.83-1.16,1.58-1.97,2.13-.81.55-1.74.91-2.75.91h-.54c-1.55,0-2.98-.71-3.99-1.81-1.01-1.1-1.62-2.6-1.62-4.26s.62-3.23,1.66-4.33c1.01-1.1,2.44-1.77,4.02-1.77s2.86.63,3.87,1.66c.93,1.02,1.59,2.44,1.7,4.06ZM94.07,5.75c-.23,0-.43.08-.54.24-.15.16-.23.35-.23.59v15.57c0,.24.08.43.23.59.15.16.35.24.54.24.46,0,.81-.35.81-.83V6.57c0-.43-.39-.83-.81-.83ZM42.17,16.58c-.66-.32-1.35-.55-2.09-.79-.66-.24-1.35-.43-1.82-.71-.23-.12-.43-.28-.54-.43-.12-.16-.19-.32-.19-.55,0-.32.08-.55.23-.79.23-.32.58-.59.97-.75.39-.16.81-.24,1.12-.24.89,0,1.47.32,1.9.63.23.16.39.32.58.47.08.08.15.12.27.2.08.04.19.08.31.08.08,0,.15,0,.23-.04s.12-.08.19-.12c.08-.04.12-.12.15-.2.04-.08.04-.16.04-.24,0-.16-.04-.28-.12-.43-.12-.24-.31-.43-.54-.67-.35-.32-.81-.63-1.32-.87-.5-.24-1.05-.39-1.55-.39-1.16,0-2.17.28-2.86.79-.39.28-.7.55-.93.99-.23.39-.35.91-.39,1.58v.08c0,.63.19,1.14.5,1.58.46.63,1.16.99,1.82,1.26.66.28,1.35.43,1.78.55.62.2,1.24.43,1.7.75.23.16.43.32.54.51.12.2.19.39.19.63,0,.35-.12.63-.27.87-.23.35-.66.63-1.08.79-.43.16-.89.24-1.16.24-1.04,0-1.7-.28-2.21-.51-.23-.12-.46-.28-.62-.35-.08-.04-.19-.12-.27-.16s-.19-.08-.27-.08-.12,0-.19.04c-.08.04-.12.08-.19.12-.08.08-.12.16-.15.24s-.08.2-.08.28c0,.16.08.32.15.43.12.2.31.35.54.55.23.16.54.35.89.51.74.35,1.7.55,2.44.59,1.12,0,2.13-.28,2.94-.91.81-.63,1.32-1.58,1.32-2.64,0-.59-.12-1.06-.35-1.5-.43-.67-1.01-1.06-1.63-1.38ZM106.03,16.86c0-1.26-.46-2.36-1.16-3.15-.74-.79-1.7-1.3-2.79-1.3s-2.05.47-2.79,1.3c-.74.79-1.16,1.93-1.16,3.15s.46,2.36,1.16,3.15c.74.79,1.7,1.3,2.79,1.3s2.05-.47,2.79-1.26c.7-.83,1.16-1.93,1.16-3.19ZM107.38,10.99c.15.16.23.35.23.59v10.56c0,.24-.08.43-.23.59-.15.16-.35.24-.54.24-.23,0-.43-.08-.54-.24-.15-.16-.23-.35-.23-.59v-1.02c-1.01,1.14-2.4,1.85-3.95,1.85s-2.94-.71-3.95-1.81c-1.01-1.1-1.63-2.64-1.63-4.3s.62-3.19,1.63-4.3c1.01-1.1,2.4-1.81,3.95-1.81s2.94.71,3.95,1.81v-.99c0-.24.08-.43.23-.59.15-.16.35-.24.54-.24.19.04.39.12.54.24ZM118.57,12.09c.15-.16.23-.39.23-.59s-.08-.43-.23-.59c-.15-.16-.35-.24-.54-.24s-.39.08-.54.24l-6.19,6.31V6.57c0-.47-.35-.83-.81-.83-.23,0-.43.08-.54.24-.15.16-.23.35-.23.59v15.57c0,.24.08.43.23.59.15.16.35.24.54.24.46,0,.81-.35.81-.83v-2.56l2.01-2.13,4.1,5.2c.08.12.19.2.27.24.12.04.23.08.35.08.15,0,.35-.04.5-.16.15-.16.27-.39.27-.63,0-.2-.08-.39-.19-.55l-4.18-5.32,4.14-4.22ZM90.78,5.79h-.35c-.46,0-.89.04-1.32.2-.43.16-.77.39-1.08.75-.31.35-.5.79-.62,1.26-.12.47-.15,1.02-.19,1.62v1.18h-1.24c-.43,0-.77.35-.77.79,0,.24.08.47.23.63.15.16.35.28.58.28h1.24v9.69c0,.24.08.43.23.59.15.16.35.24.58.24.43,0,.77-.35.77-.83v-9.69h1.35c.23,0,.43-.12.54-.28.15-.16.23-.35.23-.59v-.04c0-.43-.35-.79-.77-.79h-1.35v-1.18c0-.51.08-.91.15-1.18.08-.28.15-.47.27-.59.08-.12.19-.2.39-.24.19-.08.46-.12.81-.12h.39c.46,0,.81-.39.81-.83-.08-.47-.43-.87-.89-.87ZM10.86,17.41c.08-.2.08-.43.08-.63,0-.16-.04-.32-.08-.47-.12-.47-.43-.91-.89-1.18l-6.39-3.9c-.93-.55-2.09-.2-2.59.75-.54.95-.23,2.17.7,2.72l3.6,2.17-3.6,2.17c-.89.55-1.2,1.77-.7,2.72.5.91,1.66,1.26,2.59.71l6.42-3.9c.43-.28.74-.67.85-1.14ZM12.6,21.08c-.39-.04-.74.04-1.08.28l-6.42,3.9c-.89.55-1.2,1.77-.7,2.72.54.95,1.66,1.26,2.59.71l3.6-2.17v4.33c0,1.1.85,1.97,1.9,1.97s1.9-.91,1.9-1.97v-7.8c0-1.06-.77-1.89-1.78-1.97ZM19.22,12.6c.39.04.74-.04,1.08-.28l6.42-3.9c.89-.55,1.2-1.77.7-2.72-.54-.95-1.66-1.26-2.59-.71l-3.6,2.17V2.83c0-1.1-.85-1.97-1.9-1.97s-1.9.91-1.9,1.97v7.76c.04,1.1.81,1.93,1.78,2.01ZM5.05,8.47l6.42,3.9c.35.2.74.28,1.08.28.97-.08,1.74-.95,1.74-1.97V2.87c0-1.1-.85-1.97-1.9-1.97s-1.9.91-1.9,1.97v4.33l-3.6-2.17c-.89-.55-2.05-.24-2.59.71-.46.95-.15,2.17.74,2.72ZM17.16,16.82c0-.12-.08-.28-.15-.35l-.77-.79c-.08-.08-.23-.16-.35-.16h-.04c-.12,0-.27.08-.35.16l-.77.79c-.08.08-.15.24-.15.35v.04c0,.12.08.28.15.35l.77.83c.08.08.23.16.35.16h.04c.12,0,.27-.08.35-.16l.77-.83c.12-.08.15-.24.15-.39ZM19.33,17.61l-2.67,2.8c-.08.08-.23.16-.35.16h-.77c-.12,0-.27-.08-.35-.16l-2.67-2.8c-.08-.08-.15-.24-.15-.35v-.79c0-.12.08-.28.15-.35l2.67-2.8c.08-.08.23-.16.35-.16h.77c.12,0,.27.08.35.16l2.67,2.8c.08.08.15.24.15.35v.79c-.04.12-.08.28-.15.35ZM26.76,25.21l-6.42-3.9c-.35-.2-.74-.28-1.08-.28-.97.08-1.74.95-1.74,1.97v7.76c0,1.1.85,1.97,1.9,1.97s1.9-.91,1.9-1.97v-4.33l3.6,2.17c.89.55,2.05.24,2.59-.71.46-.91.15-2.13-.74-2.68ZM30.17,14.65l-3.6,2.17,3.6,2.17c.89.55,1.24,1.77.7,2.72-.54.95-1.7,1.26-2.59.71l-6.42-3.9c-.43-.28-.74-.67-.85-1.14-.08-.2-.08-.43-.08-.63,0-.16.04-.32.08-.47.12-.47.43-.91.89-1.18l6.42-3.9c.89-.55,2.05-.24,2.59.71.46,1.02.15,2.21-.74,2.76Z"/>
    <path class="cls-1" d="M132.77,12.8c1.16,0,1.86-.91,1.86-2.01s-.7-2.01-1.86-2.01-1.86.91-1.86,2.01c.04,1.06.7,2.01,1.86,2.01ZM132.77,9.14c.89,0,1.51.71,1.51,1.62s-.58,1.62-1.51,1.62-1.47-.71-1.47-1.62.58-1.62,1.47-1.62Z"/>
    <path class="cls-1" d="M132.85,9.89h-.81v1.73h.43v-.47h.35l.31.47h.47v-.08l-.31-.47c.15-.12.27-.28.27-.55.04-.39-.27-.63-.7-.63ZM132.5,10.32h.35c.15,0,.27.08.27.24s-.12.24-.27.24h-.35v-.47Z"/>
  </g>
  <g>
    <path class="cls-2" d="M2.73,47.35s1.4.96,2.71.96c.73,0,1.07-.33,1.07-.82s-.31-.78-1.67-1.19c-2.04-.61-3.21-1.42-3.21-3.06,0-1.8,1.2-3.07,3.76-3.07s3.66,1.06,3.66,1.06l-1.26,1.95s-1.02-.82-2.4-.82c-.79,0-1.05.31-1.05.73,0,.49.42.7,1.54,1.02,2.16.61,3.39,1.47,3.39,3.12,0,1.8-1.18,3.28-3.74,3.28-2.69,0-4.07-1.32-4.07-1.32l1.28-1.83h0Z"/>
    <path class="cls-2" d="M19.86,50.29h-1.82l-4.67-5.78v5.78h-2.34v-9.91h1.82l4.67,5.68v-5.68h2.34v9.91Z"/>
    <path class="cls-2" d="M21.64,45.34c0-2.84,2.04-5.17,4.98-5.17s5.01,2.33,5.01,5.17-2.04,5.19-5.01,5.19-4.98-2.34-4.98-5.19ZM29.2,45.34c0-1.72-1.13-2.86-2.58-2.86s-2.55,1.14-2.55,2.86,1.13,2.86,2.55,2.86,2.58-1.14,2.58-2.86Z"/>
    <path class="cls-2" d="M38.6,44.73l-1.62,5.56h-1.82l-2.84-9.91h2.58l1.23,5.25,1.59-5.25h1.75l1.62,5.28,1.26-5.28h2.59l-2.84,9.91h-1.82l-1.7-5.56h0Z"/>
    <path class="cls-2" d="M54.01,49.3s-1.04,1.22-3.32,1.22c-3.15,0-5.01-2.34-5.01-5.19s1.86-5.17,5.01-5.17c2.29,0,3.32,1.21,3.32,1.21l-1.35,1.83s-.65-.74-1.95-.74c-1.53,0-2.61,1.16-2.61,2.87s1.09,2.87,2.61,2.87c1.3,0,1.95-.74,1.95-.74l1.35,1.83Z"/>
    <path class="cls-2" d="M54.67,45.34c0-2.84,2.04-5.17,4.98-5.17s5.01,2.33,5.01,5.17-2.04,5.19-5.01,5.19-4.98-2.34-4.98-5.19ZM62.23,45.34c0-1.72-1.13-2.86-2.58-2.86s-2.55,1.14-2.55,2.86,1.13,2.86,2.55,2.86,2.58-1.14,2.58-2.86Z"/>
    <path class="cls-2" d="M75.27,50.29h-1.82l-4.67-5.78v5.78h-2.34v-9.91h1.82l4.67,5.68v-5.68h2.34v9.91Z"/>
    <path class="cls-2" d="M76.45,40.38h2.53l2.47,7.35,2.47-7.35h2.53l-3.71,9.91h-2.56l-3.71-9.91Z"/>
    <path class="cls-2" d="M93.93,46.21h-3.96v2.01h4.72v2.06h-7.07v-9.91h7.07v2.06h-4.72v1.88h3.96v1.88h0Z"/>
    <path class="cls-2" d="M100.89,40.38c2.22,0,3.74,1.4,3.74,3.34,0,1.37-.7,2.41-1.82,2.94v.18l2.19,3.28v.17h-2.68l-2.03-3.25h-1.36v3.25h-2.35v-9.91h4.3ZM100.72,42.45h-1.78v2.56h1.8c.83,0,1.46-.45,1.46-1.29s-.62-1.27-1.48-1.27Z"/>
    <path class="cls-2" d="M105.82,40.38h7.83v2.06h-2.74v7.84h-2.35v-7.84h-2.74v-2.06Z"/>
    <path class="cls-2" d="M126.93,50.29h-2.53l-.6-1.78h-3.73l-.6,1.78h-2.53l3.71-9.91h2.56l3.71,9.91h0ZM120.7,46.62h2.47l-1.23-3.67-1.23,3.67h0Z"/>
    <path class="cls-2" d="M130.46,50.29h-2.35v-9.91h2.35v9.91Z"/>
  </g>
</svg>