<svg xmlns="http://www.w3.org/2000/svg" viewBox="0 0 150.53 32" style="width: 110px; height: auto;">
    <path fill="#1db3e8" stroke="#1db3e8" stroke-miterlimit="10" stroke-width=".5" d="M2.13,18.32s1.61,1.11,3.13,1.11c.84,0,1.24-.38,1.24-.95s-.36-.9-1.93-1.38c-2.37-.71-3.71-1.64-3.71-3.53,0-2.08,1.39-3.55,4.35-3.55s4.24,1.22,4.24,1.22l-1.46,2.25s-1.18-.95-2.78-.95c-.92,0-1.22.36-1.22.84,0,.57.49.8,1.78,1.18,2.49.71,3.92,1.7,3.92,3.61,0,2.08-1.37,3.8-4.33,3.8-3.11,0-4.71-1.53-4.71-1.53l1.48-2.12h0Z"/>
    <path fill="#1db3e8" stroke="#1db3e8" stroke-miterlimit="10" stroke-width=".5" d="M21.94,21.72h-2.1l-5.4-6.68v6.68h-2.7v-11.46h2.1l5.4,6.57v-6.57h2.7v11.46Z"/>
    <path fill="#1db3e8" stroke="#1db3e8" stroke-miterlimit="10" stroke-width=".5" d="M24,15.99c0-3.29,2.37-5.98,5.76-5.98s5.79,2.69,5.79,5.98-2.37,6-5.79,6-5.76-2.71-5.76-6ZM32.74,15.99c0-1.99-1.31-3.3-2.98-3.3s-2.94,1.32-2.94,3.3,1.31,3.3,2.94,3.3,2.98-1.32,2.98-3.3Z"/>
    <path fill="#1db3e8" stroke="#1db3e8" stroke-miterlimit="10" stroke-width=".5" d="M43.62,15.28l-1.88,6.44h-2.1l-3.28-11.46h2.98l1.42,6.07,1.84-6.07h2.02l1.88,6.11,1.46-6.11h3l-3.28,11.46h-2.1l-1.97-6.44h0Z"/>
    <path fill="#1db3e8" stroke="#1db3e8" stroke-miterlimit="10" stroke-width=".5" d="M61.44,20.57s-1.2,1.41-3.84,1.41c-3.64,0-5.8-2.71-5.8-6s2.16-5.98,5.8-5.98c2.64,0,3.84,1.4,3.84,1.4l-1.56,2.12s-.75-.86-2.25-.86c-1.76,0-3.02,1.34-3.02,3.32s1.26,3.32,3.02,3.32c1.5,0,2.25-.86,2.25-.86l1.56,2.12Z"/>
    <path fill="#1db3e8" stroke="#1db3e8" stroke-miterlimit="10" stroke-width=".5" d="M62.2,15.99c0-3.29,2.36-5.98,5.76-5.98s5.79,2.69,5.79,5.98-2.36,6-5.79,6-5.76-2.71-5.76-6ZM70.95,15.99c0-1.99-1.31-3.3-2.98-3.3s-2.94,1.32-2.94,3.3,1.31,3.3,2.94,3.3,2.98-1.32,2.98-3.3Z"/>
    <path fill="#1db3e8" stroke="#1db3e8" stroke-miterlimit="10" stroke-width=".5" d="M86.03,21.72h-2.1l-5.4-6.68v6.68h-2.7v-11.46h2.1l5.4,6.57v-6.57h2.7v11.46Z"/>
    <path fill="#1db3e8" stroke="#1db3e8" stroke-miterlimit="10" stroke-width=".5" d="M87.39,10.26h2.93l2.85,8.5,2.85-8.5h2.93l-4.3,11.46h-2.96l-4.3-11.46Z"/>
    <path fill="#1db3e8" stroke="#1db3e8" stroke-miterlimit="10" stroke-width=".5" d="M107.61,17h-4.57v2.33h5.46v2.39h-8.18v-11.46h8.18v2.39h-5.46v2.18h4.57v2.18h0Z"/>
    <path fill="#1db3e8" stroke="#1db3e8" stroke-miterlimit="10" stroke-width=".5" d="M115.66,10.26c2.57,0,4.33,1.62,4.33,3.86,0,1.58-.81,2.79-2.1,3.4v.21l2.53,3.8v.19h-3.1l-2.35-3.76h-1.57v3.76h-2.72v-11.46h4.98ZM115.47,12.65h-2.06v2.96h2.08c.96,0,1.69-.52,1.69-1.49s-.71-1.47-1.71-1.47Z"/>
    <path fill="#1db3e8" stroke="#1db3e8" stroke-miterlimit="10" stroke-width=".5" d="M121.36,10.26h9.06v2.39h-3.17v9.07h-2.72v-9.07h-3.17v-2.39Z"/>
    <path fill="#1db3e8" stroke="#1db3e8" stroke-miterlimit="10" stroke-width=".5" d="M145.78,21.72h-2.93l-.69-2.06h-4.32l-.69,2.06h-2.93l4.3-11.46h2.96l4.3,11.46h0ZM138.58,17.48h2.85l-1.43-4.24-1.42,4.24h0Z"/>
    <path fill="#1db3e8" stroke="#1db3e8" stroke-miterlimit="10" stroke-width=".5" d="M149.86,21.72h-2.72v-11.46h2.72v11.46Z"/>
</svg>
